<svg xmlns="http://www.w3.org/2000/svg" viewBox="0 0 51.69 54"><title>settings</title><g id="Laag_2" data-name="Laag 2"><g id="settings"><path d="M44.16,8.67,41.81,11a1.09,1.09,0,0,1-1.47,0,21,21,0,0,0-8-4.56,1.07,1.07,0,0,1-.74-1.28L32.38,2a1.07,1.07,0,0,0-.8-1.34A26.61,26.61,0,0,0,19.8.69,1.08,1.08,0,0,0,19,2l.86,3.15a1.08,1.08,0,0,1-.72,1.3A21.06,21.06,0,0,0,11.32,11a1,1,0,0,1-1.45,0L7.46,8.82a1.11,1.11,0,0,0-1.59,0A26.85,26.85,0,0,0,.05,19.1a1.09,1.09,0,0,0,.78,1.35L4,21.27a1.06,1.06,0,0,1,.77,1.26,21.61,21.61,0,0,0,0,9.13A1.07,1.07,0,0,1,4,32.94L.89,33.8a1.1,1.1,0,0,0-.76,1.38A27,27,0,0,0,6,45.3a1.08,1.08,0,0,0,1.54,0L9.9,43a1.07,1.07,0,0,1,1.47,0,21.33,21.33,0,0,0,8,4.57,1.07,1.07,0,0,1,.74,1.28L19.26,52a1.06,1.06,0,0,0,.8,1.34,27.48,27.48,0,0,0,11.77,0,1.13,1.13,0,0,0,.8-1.38l-.86-3.15a1.11,1.11,0,0,1,.72-1.3A20.62,20.62,0,0,0,40.4,43a1.05,1.05,0,0,1,1.47,0l2.35,2.27a1.1,1.1,0,0,0,1.57,0A26.78,26.78,0,0,0,51.65,35a1.07,1.07,0,0,0-.78-1.35l-3.14-.84A1.08,1.08,0,0,1,47,31.57a21.81,21.81,0,0,0,0-9.17,1.06,1.06,0,0,1,.74-1.28l3.17-.84a1.1,1.1,0,0,0,.77-1.37,27.06,27.06,0,0,0-5.92-10.2A1.12,1.12,0,0,0,44.16,8.67Zm-10.65,26a10.8,10.8,0,1,1,0-15.28A10.8,10.8,0,0,1,33.51,34.64Z"/></g></g></svg>